<svg xmlns="http://www.w3.org/2000/svg" viewBox="0 0 24 24" fill="none">
	<defs>
		<clipPath id="clipPath_97">
			<rect width="24.000000" height="24.000000" x="0.000000" y="30.000000" fill="currentColor" />
		</clipPath>
		<clipPath id="clipPath_98">
			<rect width="20.000000" height="20.000000" x="2.000000" y="32.000000" fill="currentColor" />
		</clipPath>
	</defs>
	<path id="矢量 17" d="M3 12L21 12" stroke="currentColor" stroke-linecap="round" stroke-width="2.000000" />
	<path id="矢量 18" d="M0 0L18 0" stroke="currentColor" stroke-linecap="round" stroke-width="2.000000" transform="matrix(0,1,-1,0,12,3)" />
	<g id="chat" clip-path="url(#clipPath_97)">
		<rect id="chat" width="24.000000" height="24.000000" x="0.000000" y="30.000000" />
		<g id="图标网格" opacity="0">
			<rect id="图标网格" width="20.000000" height="20.000000" x="2.000000" y="32.000000" />
			<g id="视觉基准">
				<path id="Rectangle 1 (Stroke)" d="M21 33L21 51L3 51L3 33L21 33ZM3.09961 50.9004L20.9004 50.9004L20.9004 33.0996L3.09961 33.0996L3.09961 50.9004Z" fill="currentColor" fill-rule="nonzero" />
				<path id="Rectangle 3 (Stroke)" d="M22 34L22 50L2 50L2 34L22 34ZM2.09961 49.9004L21.9004 49.9004L21.9004 34.0996L2.09961 34.0996L2.09961 49.9004Z" fill="currentColor" fill-rule="nonzero" />
				<path id="Rectangle 2 (Stroke)" d="M20 32L20 52L4 52L4 32L20 32ZM4.09961 51.9004L19.9004 51.9004L19.9004 32.0996L4.09961 32.0996L4.09961 51.9004Z" fill="currentColor" fill-rule="nonzero" />
				<path id="Ellipse 1 (Stroke)" d="M21.9004 42C21.9004 36.5324 17.4676 32.0996 12 32.0996C6.53238 32.0996 2.09961 36.5324 2.09961 42C2.09961 47.4676 6.53238 51.9004 12 51.9004L12 52C6.47715 52 2 47.5229 2 42C2 36.4772 6.47715 32 12 32C17.5228 32 22 36.4772 22 42C22 47.5229 17.5228 52 12 52L12 51.9004C17.4676 51.9004 21.9004 47.4676 21.9004 42Z" fill="currentColor" fill-rule="nonzero" />
			</g>
			<g id="辅助线">
				<g id="对角线">
					<path id="Vector 1 (Stroke)" d="M21.0352 50.9648L20.9648 51.0352L2.96484 33.0352L3.03516 32.9648L21.0352 50.9648Z" fill="currentColor" fill-rule="nonzero" />
					<path id="Vector 2 (Stroke)" d="M21.0352 33.0352L3.03516 51.0352L2.96484 50.9648L20.9648 32.9648L21.0352 33.0352Z" fill="currentColor" fill-rule="nonzero" />
				</g>
				<g id="十字">
					<path id="Vector 3 (Stroke)" d="M22 41.9502L22 42.0498L2 42.0498L2 41.9502L22 41.9502Z" fill="currentColor" fill-rule="nonzero" />
					<path id="Vector 4 (Stroke)" d="M12.0498 32L12.0498 52L11.9502 52L11.9502 32L12.0498 32Z" fill="currentColor" fill-rule="nonzero" />
				</g>
				<g id="均分线">
					<path id="Vector 5 (Stroke)" d="M8.0498 32L8.0498 52L7.9502 52L7.9502 32L8.0498 32Z" fill="currentColor" fill-rule="nonzero" />
					<path id="Vector 6 (Stroke)" d="M16.0498 32L16.0498 52L15.9502 52L15.9502 32L16.0498 32Z" fill="currentColor" fill-rule="nonzero" />
					<path id="Vector 7 (Stroke)" d="M22 45.9502L22 46.0498L2 46.0498L2 45.9502L22 45.9502Z" fill="currentColor" fill-rule="nonzero" />
					<path id="Vector 8 (Stroke)" d="M22 37.9502L22 38.0498L2 38.0498L2 37.9502L22 37.9502Z" fill="currentColor" fill-rule="nonzero" />
				</g>
			</g>
		</g>
		<path id="矢量 23" d="M4 48.8656L4 35C4 33.8954 4.89543 33 6 33L18 33C19.1046 33 20 33.8954 20 35L20 44.018C20 45.1225 19.1046 46.018 18 46.018L8.31521 46.018C7.86699 46.018 7.43176 46.1685 7.07936 46.4455L4 48.8656Z" stroke="currentColor" stroke-width="2.000000" />
	</g>
</svg>
