<svg xmlns="http://www.w3.org/2000/svg" viewBox="0 0 24 24" fill="none">
	<defs>
		<clipPath id="clipPath_75">
			<rect width="16.000013" height="16.999998" x="4.000000" y="3.000000" fill="currentColor" />
		</clipPath>
	</defs>
	<g id="?">
		<path id="矢量 24" d="M11.21 6.33887C11.4658 6.27051 11.7344 6.23633 12.0156 6.23633C12.375 6.23633 12.6445 6.32227 12.8242 6.49414C12.8971 6.56384 12.9552 6.64108 12.9985 6.72587C13.062 6.85018 13.0938 6.99071 13.0938 7.14746C13.0938 7.27904 13.073 7.40323 13.0315 7.52004C13.0126 7.57315 12.9894 7.62474 12.9619 7.6748C12.874 7.83496 12.7617 7.99121 12.625 8.14355C12.4902 8.2959 12.3447 8.44824 12.1885 8.60059C12.0322 8.75293 11.8857 8.91699 11.749 9.09277C11.7294 9.11838 11.7103 9.14434 11.6916 9.17065C11.5823 9.32495 11.4901 9.49138 11.415 9.66992C11.3271 9.87695 11.2832 10.1123 11.2832 10.376C11.2832 10.4561 11.2871 10.542 11.2949 10.6338C11.3027 10.7256 11.3145 10.8115 11.3301 10.8916L12.5781 10.8916C12.5703 10.8428 12.5664 10.793 12.5664 10.7422L12.5664 10.6045C12.5664 10.3755 12.6117 10.1687 12.7022 9.98407C12.7066 9.975 12.7112 9.96599 12.7158 9.95703C12.8154 9.76367 12.9414 9.58105 13.0938 9.40918C13.2461 9.2373 13.4102 9.06934 13.5859 8.90527C13.7588 8.7439 13.9204 8.57308 14.0706 8.39281C14.0731 8.38981 14.0756 8.3868 14.0781 8.38379C14.1712 8.27158 14.2545 8.15354 14.3279 8.02966C14.3746 7.95085 14.4173 7.86967 14.4561 7.78613C14.5557 7.56934 14.6055 7.32422 14.6055 7.05078C14.6055 6.82812 14.5693 6.59668 14.4971 6.35645C14.4888 6.32833 14.4798 6.3005 14.47 6.27294C14.396 6.06506 14.2771 5.87317 14.1133 5.69727C13.9297 5.49609 13.6816 5.33008 13.3691 5.19922C13.0586 5.06641 12.6631 5 12.1826 5C11.8787 5 11.5805 5.02869 11.2878 5.08607C11.1949 5.10429 11.1025 5.12541 11.0107 5.14941C10.6318 5.24902 10.2949 5.38281 10 5.55078L10.4072 6.66699C10.6865 6.51465 10.9541 6.40527 11.21 6.33887ZM12.8335 13.1964C12.9113 13.0584 12.9502 12.8986 12.9502 12.7168C12.9502 12.5343 12.9115 12.3732 12.8342 12.2335C12.7924 12.1578 12.7393 12.0885 12.6748 12.0254C12.603 11.9551 12.5242 11.8985 12.4386 11.8557C12.3055 11.7891 12.1557 11.7559 11.9893 11.7559C11.8502 11.7559 11.7218 11.7808 11.6039 11.8308C11.4983 11.8756 11.4011 11.9405 11.3125 12.0254C11.2428 12.0922 11.186 12.166 11.1422 12.2469C11.0682 12.3835 11.0312 12.5401 11.0312 12.7168C11.0312 12.8928 11.0685 13.0483 11.143 13.1832C11.1867 13.2624 11.2432 13.3344 11.3125 13.3994C11.3974 13.479 11.4901 13.5406 11.5906 13.5841C11.7121 13.6368 11.845 13.6631 11.9893 13.6631C12.1616 13.6631 12.3161 13.6282 12.4528 13.5583C12.5329 13.5174 12.6069 13.4644 12.6748 13.3994C12.7389 13.338 12.7918 13.2704 12.8335 13.1964Z" fill="currentColor" fill-rule="evenodd" />
	</g>
	<g id="气泡" customFrame="url(#clipPath_75)">
		<rect id="气泡" width="16.000013" height="16.999998" x="4.000000" y="3.000000" fill="currentColor" fill-opacity="0" />
		<path id="矢量 23" d="M3.00001 20L3 5C3 3.89543 3.89543 3 5 3L19 3C20.1046 3 21 3.89543 21 5L21 15.1523C21 16.2569 20.1046 17.1523 19 17.1523L7.70566 17.1523C7.29596 17.1523 6.89614 17.2781 6.56028 17.5128L3.00001 20Z" stroke="currentColor" stroke-width="1.750000" />
	</g>
</svg>
