<?xml version="1.0" encoding="UTF-8"?>
<svg width="16" height="16" fill="currentColor" version="1.1" viewBox="0 0 16 16" xmlns="http://www.w3.org/2000/svg">
 <path d="m3.5636 13-3.5636 2.8v-14.8c0-0.44182 0.35818-0.8 0.8-0.8h14.4c0.44184 0 0.8 0.35818 0.8 0.8v11.2c0 0.44184-0.35816 0.8-0.8 0.8zm3.6364-4v1.6h1.6v-1.6zm-1.9462-4.1492 1.5692 0.31385c0.10944-0.55003 0.5948-0.96462 1.177-0.96462 0.66272 0 1.2 0.53726 1.2 1.2 0 0.66272-0.53728 1.2-1.2 1.2h-0.8v1.6h0.8c1.5464 0 2.8-1.2536 2.8-2.8s-1.2536-2.8-2.8-2.8c-1.3584 0-2.4909 0.96735-2.7462 2.2508z" fill="currentColor" stroke-width=".8"/>
</svg>
