<?xml version="1.0" encoding="UTF-8"?>
<svg xmlns="http://www.w3.org/2000/svg" class="icon" p-id="5419" t="1784569638457" version="1.1" viewBox="0 0 81.92 81.92" xml:space="preserve"><path d="m23.364 59.104-14.134 11.109v-58.717c0-1.7529 1.4206-3.1739 3.173-3.1739h57.114c1.7524 0 3.173 1.421 3.173 3.1739v44.435c0 1.7529-1.4206 3.1739-3.173 3.1739z" fill="none" stroke="currentColor" stroke-width="6.3999" /><path d="m38.54 37.763v-1.78q0-2.02 0.9-3.48 0.92-1.48 2.78-2.7 1.3-0.82 1.96-1.84 0.68-1.04 0.68-2.22 0-1.3-0.9-2-0.88-0.72-2.54-0.72l0.24-4.54q4 0 6.2 1.78 2.2 1.76 2.2 4.98 0 2.34-1.16 4.26t-3.48 3.42q-1.1 0.72-1.64 1.62-0.52 0.9-0.52 2.12v1.1zm-3.92-11.3-2.86-3.4q1.44-2.08 4.1-3.32 2.68-1.26 5.8-1.26l-0.24 4.54q-1.88 0-3.7 0.94t-3.1 2.5zm6.36 21.22q-1.4 0-2.38-0.98-0.98-1-0.98-2.38 0-1.42 0.98-2.4t2.38-0.98q1.4 0 2.38 0.98t0.98 2.4q0 1.38-0.98 2.38-0.98 0.98-2.38 0.98z" fill="currentColor" stroke-linecap="round" stroke-linejoin="round" stroke-width="6.4" aria-label="?" /></svg>
