<svg xmlns="http://www.w3.org/2000/svg" viewBox="0 0 24 24" fill="none">
	<path id="矢量 68" d="M20 12L4 12C2.89544 12 2.00001 11.1046 2.00001 10L2 8.5C2 7.39543 2.89543 6.5 4 6.5L10 6.5L10 4.99999C10 3.89543 10.8954 3 12 3C13.1046 3 14 3.89543 14 5L14 6.5L20 6.5C21.1046 6.5 22 7.39543 22 8.49999L22 10C22 11.1046 21.1046 12 20 12Z" fill="currentColor" fill-rule="evenodd" />
	<path id="矢量 69" d="M6 12L5.99998 19C5.99998 19.5523 6.4477 20 6.99999 20L9.99998 20L14 20L17 20C17.5523 20 18 19.5523 18 19L18 12L20 12L20 19C20 20.6569 18.6568 22 17 22L14 22L9.99998 22L6.99999 22C5.34313 22 3.99998 20.6569 3.99998 19L4 12L6 12ZM8.99998 21L8.99999 16Q8.99999 15.9015 9.01921 15.8049Q9.03842 15.7083 9.07611 15.6173Q9.1138 15.5263 9.16852 15.4444Q9.22324 15.3625 9.29288 15.2929Q9.36253 15.2232 9.44442 15.1685Q9.52631 15.1138 9.61731 15.0761Q9.7083 15.0384 9.8049 15.0192Q9.9015 15 9.99999 15Q10.0985 15 10.1951 15.0192Q10.2917 15.0384 10.3827 15.0761Q10.4737 15.1138 10.5556 15.1685Q10.6375 15.2232 10.7071 15.2929Q10.7767 15.3625 10.8315 15.4444Q10.8862 15.5263 10.9239 15.6173Q10.9616 15.7083 10.9808 15.8049Q11 15.9015 11 16L11 21L8.99998 21ZM13 21L13 16Q13 15.9015 13.0192 15.8049Q13.0384 15.7083 13.0761 15.6173Q13.1138 15.5263 13.1685 15.4444Q13.2232 15.3625 13.2929 15.2929Q13.3625 15.2232 13.4444 15.1685Q13.5263 15.1138 13.6173 15.0761Q13.7083 15.0384 13.8049 15.0192Q13.9015 15 14 15Q14.0985 15 14.1951 15.0192Q14.2917 15.0384 14.3827 15.0761Q14.4737 15.1138 14.5556 15.1685Q14.6375 15.2233 14.7071 15.2929Q14.7767 15.3625 14.8315 15.4444Q14.8862 15.5263 14.9239 15.6173Q14.9616 15.7083 14.9808 15.8049Q15 15.9015 15 16L15 21L13 21ZM9.01999 16.02L8.99999 16C8.99999 15.44 9.43999 15 9.99999 15C10.56 15 11 15.44 11 16L10.98 16.02L9.01999 16.02ZM13.02 16.02L13 16C13 15.44 13.44 15 14 15C14.56 15 15 15.44 15 16L14.98 16.02L13.02 16.02Z" fill="currentColor" fill-rule="nonzero" />
</svg>
