<?xml version="1.0" encoding="UTF-8" standalone="no"?>
<svg class="icon" width="512" height="512" viewBox="0 0 2621.44 2621.44" version="1.1" id="svg4" sodipodi:docname="daedalus_icon.svg" inkscape:version="1.4.4 (dcaf3e7, 2026-05-05)" xmlns:inkscape="http://www.inkscape.org/namespaces/inkscape" xmlns:sodipodi="http://sodipodi.sourceforge.net/DTD/sodipodi-0.dtd" xmlns="http://www.w3.org/2000/svg" xmlns:svg="http://www.w3.org/2000/svg">
  <defs id="defs4" />
  <sodipodi:namedview id="namedview4" pagecolor="#505050" bordercolor="#eeeeee" borderopacity="1" inkscape:showpageshadow="0" inkscape:pageopacity="0" inkscape:pagecheckerboard="0" inkscape:deskcolor="#505050" inkscape:zoom="1.3735549" inkscape:cx="262.09363" inkscape:cy="253.7212" inkscape:window-width="1920" inkscape:window-height="991" inkscape:window-x="-9" inkscape:window-y="-9" inkscape:window-maximized="1" inkscape:current-layer="svg4" />
  <path d="m 1310.72,63.60064 c -687.75549,0 -1247.41888,559.66339 -1247.41888,1247.41886 0,687.7484 559.66339,1247.4189 1247.41888,1247.4189 687.7484,0 1247.4189,-559.6705 1247.4189,-1247.4189 0,-687.75547 -559.6705,-1247.41886 -1247.4189,-1247.41886 z" fill="#4d4d4d" id="path3" style="stroke-width:2.78442;fill:#e0e0e0;fill-opacity:1" sodipodi:nodetypes="sssss" />
  <path d="m 1373.1266,276.68117 c -33.4665,-97.04919 -87.0128,-97.04919 -120.4864,0 l -185.1811,546.62608 c -32.3474,97.05632 -139.44008,203.02985 -235.37729,236.49635 l -543.27587,185.1811 c -97.04919,33.4665 -97.04919,87.0128 0,120.4793 l 539.92566,187.4122 c 97.05632,33.4665 203.0299,140.5592 236.5035,236.4964 l 188.5242,547.7381 c 33.4665,97.0491 87.0128,97.0491 120.4793,0 l 184.0691,-544.3879 c 32.3474,-97.0563 138.3281,-203.0299 235.3772,-236.4964 l 551.0812,-188.5313 c 97.0492,-33.4665 97.0492,-87.0128 0,-119.3602 l -542.1568,-182.95 C 1705.553,1033.0304 1599.5794,927.05686 1566.113,830.00054 1562.7628,828.88856 1373.1266,276.69543 1373.1266,276.69543 Z" fill="#bfbfbf" id="path1" style="stroke-width:2.78442;fill:#808080;fill-opacity:1" />
  <path d="M 535.70221,2089.0953 1624.3567,1619.7878 2082.5016,542.29585 1005.359,1001.4886 Z" fill="#4d4d4d" id="path2" style="stroke-width:2.78442;fill:#202020;fill-opacity:1" />
  <path d="m 1305.5379,1319.2596 m -178.2027,0 a 178.2027,178.2027 0 1 0 356.4054,0 178.2027,178.2027 0 1 0 -356.4054,0 z" fill="#c4c4c4" id="path4" style="stroke-width:2.78442" />
</svg>
