<svg xmlns="http://www.w3.org/2000/svg" viewBox="0 0 24 24" fill="none">
	<defs>
		<clipPath id="clipPath_100">
			<rect width="24.000000" height="24.000000" x="0.000000" y="26.000000" fill="currentColor" />
		</clipPath>
		<clipPath id="clipPath_101">
			<rect width="20.000000" height="20.000000" x="2.000000" y="28.000000" fill="currentColor" />
		</clipPath>
		<clipPath id="clipPath_102">
			<rect width="24.000000" height="24.000000" x="0.000000" y="26.000000" fill="currentColor" />
		</clipPath>
		<clipPath id="clipPath_103">
			<rect width="20.000000" height="20.000000" x="2.000000" y="28.000000" fill="currentColor" />
		</clipPath>
	</defs>
	<g id="close" clip-path="url(#clipPath_100)">
		<rect id="close" width="24.000000" height="24.000000" x="0.000000" y="26.000000" />
		<g id="图标网格" opacity="0">
			<rect id="图标网格" width="20.000000" height="20.000000" x="2.000000" y="28.000000" />
			<g id="视觉基准">
				<path id="Rectangle 1 (Stroke)" d="M21 29L21 47L3 47L3 29L21 29ZM3.09961 46.9004L20.9004 46.9004L20.9004 29.0996L3.09961 29.0996L3.09961 46.9004Z" fill="currentColor" fill-rule="nonzero" />
				<path id="Rectangle 3 (Stroke)" d="M22 30L22 46L2 46L2 30L22 30ZM2.09961 45.9004L21.9004 45.9004L21.9004 30.0996L2.09961 30.0996L2.09961 45.9004Z" fill="currentColor" fill-rule="nonzero" />
				<path id="Rectangle 2 (Stroke)" d="M20 28L20 48L4 48L4 28L20 28ZM4.09961 47.9004L19.9004 47.9004L19.9004 28.0996L4.09961 28.0996L4.09961 47.9004Z" fill="currentColor" fill-rule="nonzero" />
				<path id="Ellipse 1 (Stroke)" d="M21.9004 38C21.9004 32.5324 17.4676 28.0996 12 28.0996C6.53238 28.0996 2.09961 32.5324 2.09961 38C2.09961 43.4676 6.53238 47.9004 12 47.9004L12 48C6.47715 48 2 43.5229 2 38C2 32.4772 6.47715 28 12 28C17.5228 28 22 32.4772 22 38C22 43.5229 17.5228 48 12 48L12 47.9004C17.4676 47.9004 21.9004 43.4676 21.9004 38Z" fill="currentColor" fill-rule="nonzero" />
			</g>
			<g id="辅助线">
				<g id="对角线">
					<path id="Vector 1 (Stroke)" d="M21.0352 46.9648L20.9648 47.0352L2.96484 29.0352L3.03516 28.9648L21.0352 46.9648Z" fill="currentColor" fill-rule="nonzero" />
					<path id="Vector 2 (Stroke)" d="M21.0352 29.0352L3.03516 47.0352L2.96484 46.9648L20.9648 28.9648L21.0352 29.0352Z" fill="currentColor" fill-rule="nonzero" />
				</g>
				<g id="十字">
					<path id="Vector 3 (Stroke)" d="M22 37.9502L22 38.0498L2 38.0498L2 37.9502L22 37.9502Z" fill="currentColor" fill-rule="nonzero" />
					<path id="Vector 4 (Stroke)" d="M12.0498 28L12.0498 48L11.9502 48L11.9502 28L12.0498 28Z" fill="currentColor" fill-rule="nonzero" />
				</g>
				<g id="均分线">
					<path id="Vector 5 (Stroke)" d="M8.0498 28L8.0498 48L7.9502 48L7.9502 28L8.0498 28Z" fill="currentColor" fill-rule="nonzero" />
					<path id="Vector 6 (Stroke)" d="M16.0498 28L16.0498 48L15.9502 48L15.9502 28L16.0498 28Z" fill="currentColor" fill-rule="nonzero" />
					<path id="Vector 7 (Stroke)" d="M22 41.9502L22 42.0498L2 42.0498L2 41.9502L22 41.9502Z" fill="currentColor" fill-rule="nonzero" />
					<path id="Vector 8 (Stroke)" d="M22 33.9502L22 34.0498L2 34.0498L2 33.9502L22 33.9502Z" fill="currentColor" fill-rule="nonzero" />
				</g>
			</g>
		</g>
		<path id="Vector (Stroke)" d="M19.2308 0C19.6556 0 20 0.335786 20 0.75C20 1.16421 19.6556 1.5 19.2308 1.5L0.769231 1.5C0.344396 1.5 4.44089e-16 1.16421 0 0.75C4.44089e-16 0.335786 0.344396 0 0.769231 0L19.2308 0Z" fill="currentColor" fill-rule="evenodd" transform="matrix(0.707107,0.707107,-0.707107,0.707107,5.45926,30.3986)" />
		<path id="Vector (Stroke)" d="M0 19.2309L0 0.773034C0 0.346099 0.335786 0 0.75 0C1.16421 0 1.5 0.346099 1.5 0.773034L1.5 19.2309C1.5 19.6557 1.16421 20 0.75 20C0.335786 20 0 19.6557 0 19.2309Z" fill="currentColor" fill-rule="evenodd" transform="matrix(0.707107,0.707107,-0.707107,0.707107,18.5407,30.3986)" />
	</g>
	<path id="矢量 19" d="M11 5L7 5C5.89543 5 5 5.89543 5 7L5 17C5 18.1046 5.89543 19 7 19L17 19C18.1046 19 19 18.1046 19 17L19 13" stroke="currentColor" stroke-linecap="round" stroke-width="2.000000" />
	<path id="矢量 20" d="M12 12L21 3M15 3L21 3L21 9" stroke="currentColor" stroke-linecap="round" stroke-width="2.000000" />
	<g id="ask" clip-path="url(#clipPath_102)">
		<rect id="ask" width="24.000000" height="24.000000" x="0.000000" y="26.000000" />
		<g id="图标网格" opacity="0">
			<rect id="图标网格" width="20.000000" height="20.000000" x="2.000000" y="28.000000" />
			<g id="视觉基准">
				<path id="Rectangle 1 (Stroke)" d="M21 29L21 47L3 47L3 29L21 29ZM3.09961 46.9004L20.9004 46.9004L20.9004 29.0996L3.09961 29.0996L3.09961 46.9004Z" fill="currentColor" fill-rule="nonzero" />
				<path id="Rectangle 3 (Stroke)" d="M22 30L22 46L2 46L2 30L22 30ZM2.09961 45.9004L21.9004 45.9004L21.9004 30.0996L2.09961 30.0996L2.09961 45.9004Z" fill="currentColor" fill-rule="nonzero" />
				<path id="Rectangle 2 (Stroke)" d="M20 28L20 48L4 48L4 28L20 28ZM4.09961 47.9004L19.9004 47.9004L19.9004 28.0996L4.09961 28.0996L4.09961 47.9004Z" fill="currentColor" fill-rule="nonzero" />
				<path id="Ellipse 1 (Stroke)" d="M21.9004 38C21.9004 32.5324 17.4676 28.0996 12 28.0996C6.53238 28.0996 2.09961 32.5324 2.09961 38C2.09961 43.4676 6.53238 47.9004 12 47.9004L12 48C6.47715 48 2 43.5229 2 38C2 32.4772 6.47715 28 12 28C17.5228 28 22 32.4772 22 38C22 43.5229 17.5228 48 12 48L12 47.9004C17.4676 47.9004 21.9004 43.4676 21.9004 38Z" fill="currentColor" fill-rule="nonzero" />
			</g>
			<g id="辅助线">
				<g id="对角线">
					<path id="Vector 1 (Stroke)" d="M21.0352 46.9648L20.9648 47.0352L2.96484 29.0352L3.03516 28.9648L21.0352 46.9648Z" fill="currentColor" fill-rule="nonzero" />
					<path id="Vector 2 (Stroke)" d="M21.0352 29.0352L3.03516 47.0352L2.96484 46.9648L20.9648 28.9648L21.0352 29.0352Z" fill="currentColor" fill-rule="nonzero" />
				</g>
				<g id="十字">
					<path id="Vector 3 (Stroke)" d="M22 37.9502L22 38.0498L2 38.0498L2 37.9502L22 37.9502Z" fill="currentColor" fill-rule="nonzero" />
					<path id="Vector 4 (Stroke)" d="M12.0498 28L12.0498 48L11.9502 48L11.9502 28L12.0498 28Z" fill="currentColor" fill-rule="nonzero" />
				</g>
				<g id="均分线">
					<path id="Vector 5 (Stroke)" d="M8.0498 28L8.0498 48L7.9502 48L7.9502 28L8.0498 28Z" fill="currentColor" fill-rule="nonzero" />
					<path id="Vector 6 (Stroke)" d="M16.0498 28L16.0498 48L15.9502 48L15.9502 28L16.0498 28Z" fill="currentColor" fill-rule="nonzero" />
					<path id="Vector 7 (Stroke)" d="M22 41.9502L22 42.0498L2 42.0498L2 41.9502L22 41.9502Z" fill="currentColor" fill-rule="nonzero" />
					<path id="Vector 8 (Stroke)" d="M22 33.9502L22 34.0498L2 34.0498L2 33.9502L22 33.9502Z" fill="currentColor" fill-rule="nonzero" />
				</g>
			</g>
		</g>
		<path id="矢量 23" d="M4 46L4 31C4 29.8954 4.89543 29 6 29L18 29C19.1046 29 20 29.8954 20 31L20 41.1523C20 42.2569 19.1046 43.1523 18 43.1523L8.31521 43.1523C7.86699 43.1523 7.43176 43.3029 7.07936 43.5798L4 46Z" stroke="currentColor" stroke-width="2.000000" />
		<g id="?">
			<path id="矢量 24" d="M11.21 32.3389C11.4658 32.2705 11.7344 32.2363 12.0156 32.2363C12.375 32.2363 12.6445 32.3223 12.8242 32.4941C12.8971 32.5638 12.9552 32.6411 12.9985 32.7259C13.062 32.8502 13.0938 32.9907 13.0938 33.1475C13.0938 33.279 13.073 33.4032 13.0315 33.52C13.0126 33.5732 12.9894 33.6247 12.9619 33.6748C12.874 33.835 12.7617 33.9912 12.625 34.1436C12.4902 34.2959 12.3447 34.4482 12.1885 34.6006C12.0322 34.7529 11.8857 34.917 11.749 35.0928C11.7294 35.1184 11.7103 35.1443 11.6916 35.1706C11.5823 35.325 11.4901 35.4914 11.415 35.6699C11.3271 35.877 11.2832 36.1123 11.2832 36.376C11.2832 36.4561 11.2871 36.542 11.2949 36.6338C11.3027 36.7256 11.3145 36.8115 11.3301 36.8916L12.5781 36.8916C12.5703 36.8428 12.5664 36.793 12.5664 36.7422L12.5664 36.6045C12.5664 36.3755 12.6117 36.1687 12.7022 35.9841C12.7066 35.975 12.7112 35.966 12.7158 35.957C12.8154 35.7637 12.9414 35.5811 13.0938 35.4092C13.2461 35.2373 13.4102 35.0693 13.5859 34.9053C13.7588 34.7439 13.9204 34.5731 14.0706 34.3928C14.0731 34.3898 14.0756 34.3868 14.0781 34.3838C14.1712 34.2716 14.2545 34.1535 14.3279 34.0297C14.3746 33.9508 14.4173 33.8697 14.4561 33.7861C14.5557 33.5693 14.6055 33.3242 14.6055 33.0508C14.6055 32.8281 14.5693 32.5967 14.4971 32.3564C14.4888 32.3283 14.4798 32.3005 14.47 32.2729C14.396 32.0651 14.2771 31.8732 14.1133 31.6973C13.9297 31.4961 13.6816 31.3301 13.3691 31.1992C13.0586 31.0664 12.6631 31 12.1826 31C11.8787 31 11.5805 31.0287 11.2878 31.0861C11.1949 31.1043 11.1025 31.1254 11.0107 31.1494C10.6318 31.249 10.2949 31.3828 10 31.5508L10.4072 32.667C10.6865 32.5146 10.9541 32.4053 11.21 32.3389ZM12.8335 39.1964C12.9113 39.0584 12.9502 38.8986 12.9502 38.7168C12.9502 38.5343 12.9115 38.3732 12.8342 38.2335C12.7924 38.1578 12.7393 38.0885 12.6748 38.0254C12.603 37.9551 12.5242 37.8985 12.4386 37.8557C12.3055 37.7891 12.1557 37.7559 11.9893 37.7559C11.8502 37.7559 11.7218 37.7808 11.6039 37.8308C11.4983 37.8756 11.4011 37.9405 11.3125 38.0254C11.2428 38.0922 11.186 38.166 11.1422 38.2469C11.0682 38.3835 11.0312 38.5401 11.0312 38.7168C11.0312 38.8928 11.0685 39.0483 11.143 39.1832C11.1867 39.2624 11.2432 39.3344 11.3125 39.3994C11.3974 39.479 11.4901 39.5406 11.5906 39.5841C11.7121 39.6368 11.845 39.6631 11.9893 39.6631C12.1616 39.6631 12.3161 39.6282 12.4528 39.5583C12.5329 39.5173 12.6069 39.4644 12.6748 39.3994C12.7389 39.338 12.7918 39.2704 12.8335 39.1964Z" fill="currentColor" fill-rule="evenodd" />
		</g>
	</g>
</svg>
