<svg xmlns="http://www.w3.org/2000/svg" viewBox="0 0 24 24" fill="none">
	<path id="矢量 4(边框)" d="M6.25 5.5L11.7931 5.5L11.7943 5.5C11.9158 5.49983 12.0267 5.47446 12.1273 5.42389C12.2754 5.35168 12.3948 5.23231 12.467 5.08421C12.5177 4.98332 12.5431 4.87191 12.5431 4.75C12.5431 4.45075 12.3756 4.19719 12.1273 4.07613C12.0264 4.02538 11.915 4 11.7931 4L6.25 4C5.00736 4 4 5.00736 4 6.25L4 17.75C4 18.9926 5.00736 20 6.25 20L17.75 20C18.9926 20 20 18.9926 20 17.75L20 13.3274L20 12.75C20 12.6281 19.9746 12.5167 19.9239 12.4158C19.8517 12.2677 19.7323 12.1483 19.5842 12.0761C19.4843 12.0259 19.3742 12.0005 19.2537 12L19.25 12L19.2498 12C19.128 12 19.0167 12.0254 18.9158 12.0761C18.7677 12.1483 18.6483 12.2677 18.5761 12.4159C18.5262 12.5152 18.5008 12.6246 18.5 12.7443L18.5 12.75L18.5 13.3274L18.5 17.75C18.5 18.1642 18.1642 18.5 17.75 18.5L6.25 18.5C5.83579 18.5 5.5 18.1642 5.5 17.75L5.5 6.25C5.5 5.83579 5.83578 5.5 6.25 5.5Z" fill="currentColor" fill-rule="evenodd" />
	<path id="矢量 5(边框)" d="M19.4022 3.50981L15.2128 3.50981C14.7928 3.50981 14.4628 3.17981 14.4628 2.75981C14.4628 2.33981 14.7928 2.00981 15.2128 2.00981L21.2128 2.00981C21.6328 2.00981 21.9628 2.33981 21.9628 2.75981L21.9628 8.75981C21.9628 9.17981 21.6328 9.50981 21.2128 9.50981C20.7928 9.50981 20.4628 9.17981 20.4628 8.75981L20.4628 4.57047L12.7432 12.2901C12.7426 12.2907 12.742 12.2913 12.7414 12.2919C12.6557 12.3771 12.5595 12.4374 12.4531 12.4726C12.2972 12.5263 12.1284 12.5263 11.9726 12.4726C11.8683 12.4381 11.7739 12.3796 11.6895 12.297C11.6871 12.2948 11.6848 12.2925 11.6825 12.2901C11.6819 12.2896 11.6813 12.289 11.6808 12.2884C11.5955 12.2026 11.5352 12.1065 11.5 12C11.4463 11.8442 11.4463 11.6754 11.5 11.5196C11.5345 11.4153 11.593 11.3209 11.6756 11.2365C11.6779 11.2341 11.6802 11.2318 11.6825 11.2295L19.4022 3.50981Z" fill="currentColor" fill-rule="evenodd" />
</svg>
