<svg xmlns="http://www.w3.org/2000/svg" viewBox="0 0 24 24" fill="none">
	<defs>
		<clipPath id="clipPath_1">
			<rect width="10.999998" height="11.000000" x="10.000000" y="10.000000" fill="currentColor" />
		</clipPath>
	</defs>
	<path id="矢量 37" d="M14 4L14 8L18 8" stroke="currentColor" stroke-linecap="square" stroke-width="1.750000" />
	<path id="减去顶层" d="M4.125 5L4.125 19C4.125 20.5878 5.41218 21.875 7 21.875L13.419 21.875C12.9822 21.3591 12.6309 20.7685 12.3872 20.125L7 20.125C6.37868 20.125 5.875 19.6213 5.875 19L5.875 5C5.875 4.37868 6.37868 3.875 7 3.875L14.1716 3.875Q14.4046 3.875 14.6034 3.95738Q14.8023 4.03975 14.9671 4.2045L17.7955 7.03293Q17.9603 7.19769 18.0426 7.39657Q18.125 7.59544 18.125 7.82843L18.125 12.0013C18.735 12.0137 19.3227 12.1173 19.875 12.2988L19.875 7.82843Q19.875 7.233 19.6645 6.72476Q19.454 6.21653 19.0329 5.7955L16.2045 2.96707Q15.7835 2.54604 15.2752 2.33552Q14.767 2.125 14.1716 2.125L7 2.125C5.41218 2.125 4.125 3.41218 4.125 5Z" fill="currentColor" fill-rule="evenodd" />
	<g id="小放大镜">
		<rect id="小放大镜" width="10.999998" height="11.000000" x="10.000000" y="10.000000" />
		<circle id="椭圆 11" cx="14" cy="14" r="3.25" stroke="currentColor" stroke-width="1.500000" />
		<path id="矢量 50" d="M17.1187 15.8813L21.6187 20.3813Q21.6797 20.4422 21.7275 20.5139Q21.7754 20.5855 21.8084 20.6652Q21.8414 20.7448 21.8582 20.8293Q21.875 20.9138 21.875 21Q21.875 21.0862 21.8582 21.1707Q21.8414 21.2552 21.8084 21.3348Q21.7754 21.4145 21.7275 21.4861Q21.6797 21.5578 21.6187 21.6187Q21.5578 21.6797 21.4861 21.7275Q21.4145 21.7754 21.3348 21.8084Q21.2552 21.8414 21.1707 21.8582Q21.0862 21.875 21 21.875Q20.9138 21.875 20.8293 21.8582Q20.7448 21.8414 20.6651 21.8084Q20.5855 21.7754 20.5139 21.7275Q20.4422 21.6797 20.3813 21.6187L15.8813 17.1187L17.1187 15.8813ZM21.5904 20.3813L21.6187 20.3813C21.9652 20.7278 21.9652 21.2722 21.6187 21.6187C21.2722 21.9652 20.7278 21.9652 20.3813 21.6187L20.3813 21.5904L21.5904 20.3813Z" fill="currentColor" fill-rule="nonzero" />
	</g>
</svg>
