<svg xmlns="http://www.w3.org/2000/svg" viewBox="0 0 24 24" fill="none">
	<defs>
		<clipPath id="clipPath_4">
			<rect width="9.499997" height="10.000008" x="3.500000" y="10.500000" fill="currentColor" />
		</clipPath>
	</defs>
	<path id="矢量 37" d="M14 4L14 8L18 8" stroke="currentColor" stroke-linecap="square" stroke-width="1.750000" />
	<path id="减去顶层" d="M4.125 11.2988C4.67728 11.1173 5.26496 11.0137 5.875 11.0013L5.875 5C5.875 4.37868 6.37868 3.875 7 3.875L14.1716 3.875Q14.4046 3.875 14.6034 3.95738Q14.8023 4.03975 14.9671 4.2045L17.7955 7.03293Q17.9603 7.19769 18.0426 7.39657Q18.125 7.59544 18.125 7.82843L18.125 19C18.125 19.6213 17.6213 20.125 17 20.125L11.123 20.125C10.7034 20.8113 10.1498 21.4068 9.49854 21.875L17 21.875C18.5878 21.875 19.875 20.5878 19.875 19L19.875 7.82843Q19.875 7.233 19.6645 6.72476Q19.454 6.21653 19.0329 5.7955L16.2045 2.96707Q15.7835 2.54604 15.2752 2.33552Q14.767 2.125 14.1716 2.125L7 2.125C5.41218 2.125 4.125 3.41218 4.125 5L4.125 11.2988Z" fill="currentColor" fill-rule="evenodd" />
	<g id="小铅笔" customFrame="url(#clipPath_4)">
		<rect id="小铅笔" width="9.499997" height="10.000008" x="3.500000" y="10.500000" fill="currentColor" fill-opacity="0" />
		<path id="小铅笔" d="M6 20.5L3.5 20.5L3.50001 18L9.25225 11.8369C9.9343 11.1061 11.0863 11.0863 11.7931 11.7931C12.4663 12.4663 12.485 13.5518 11.8354 14.2478L6 20.5Z" stroke="currentColor" stroke-width="1.750000" />
	</g>
</svg>
