<svg xmlns="http://www.w3.org/2000/svg" viewBox="0 0 24 24" fill="none">
	<path id="减去顶层" d="M2 5L2 18C2 19.6569 3.34315 21 5 21L12.8027 21C12.4513 20.3926 12.2034 19.7179 12.083 19L5 19C4.44772 19 4 18.5523 4 18L4 5L8.25257 5Q8.81411 5 9.30662 5.18438Q9.79913 5.36876 10.2226 5.73751L11.9015 7.19939Q12.6073 7.81398 13.4282 8.12128Q14.249 8.42857 15.1849 8.42857L20 8.42857L20 12.3414C20.7452 12.6048 21.4229 13.0113 22 13.5278L22 8.42857Q22 8.01435 21.8535 7.66079Q21.7071 7.30724 21.4142 7.01436Q21.1213 6.72147 20.7678 6.57502Q20.4142 6.42857 20 6.42857L15.1849 6.42857Q14.6234 6.42857 14.1309 6.24419Q13.6384 6.05982 13.2149 5.69106L11.536 4.22918Q10.8302 3.61459 10.0093 3.30729Q9.18846 3 8.25257 3L4 3Q3.58579 3 3.23223 3.14645Q2.87868 3.29289 2.58579 3.58579Q2.29289 3.87868 2.14645 4.23223Q2 4.58579 2 5Z" fill="currentColor" fill-rule="evenodd" />
	<g id="小放大镜">
		<rect id="小放大镜" width="10.999998" height="11.000000" x="10.000000" y="10.000000" />
		<circle id="椭圆 11" cx="14" cy="14" r="3.25" stroke="currentColor" stroke-width="1.500000" />
		<path id="矢量 50" d="M17.1187 15.8813L21.6187 20.3813Q21.6797 20.4422 21.7275 20.5139Q21.7754 20.5855 21.8084 20.6652Q21.8414 20.7448 21.8582 20.8293Q21.875 20.9138 21.875 21Q21.875 21.0862 21.8582 21.1707Q21.8414 21.2552 21.8084 21.3348Q21.7754 21.4145 21.7275 21.4861Q21.6797 21.5578 21.6187 21.6187Q21.5578 21.6797 21.4861 21.7275Q21.4145 21.7754 21.3348 21.8084Q21.2552 21.8414 21.1707 21.8582Q21.0862 21.875 21 21.875Q20.9138 21.875 20.8293 21.8582Q20.7448 21.8414 20.6651 21.8084Q20.5855 21.7754 20.5139 21.7275Q20.4422 21.6797 20.3813 21.6187L15.8813 17.1187L17.1187 15.8813ZM21.5904 20.3813L21.6187 20.3813C21.9652 20.7278 21.9652 21.2722 21.6187 21.6187C21.2722 21.9652 20.7278 21.9652 20.3813 21.6187L20.3813 21.5904L21.5904 20.3813Z" fill="currentColor" fill-rule="nonzero" />
	</g>
</svg>
