<svg xmlns="http://www.w3.org/2000/svg" viewBox="0 0 24 24" fill="none">
	<path id="矢量 10" d="M19.7844 10L4.21555 10C3.15435 10 2.42872 11.0718 2.82283 12.0571L5.62284 19.0571C5.85063 19.6266 6.40219 20 7.01555 20L16.9844 20C17.5978 20 18.1494 19.6266 18.3772 19.0571L21.1772 12.0571C21.5713 11.0718 20.8456 10 19.7844 10Z" fill="currentColor" fill-rule="evenodd" />
	<path id="减去顶层" d="M19.4989 9C19.4929 8.59095 19.1595 8.26119 18.749 8.26119L14.499 8.2612Q14.1491 8.26121 13.8098 8.20113C13.6011 8.16416 13.3954 8.11013 13.1927 8.03904C12.9597 7.95733 12.7382 7.85573 12.5283 7.73423C12.3569 7.63503 12.1931 7.52257 12.0371 7.39685L10.3434 6.03246Q10.2097 5.92476 10.0636 5.83811C9.92792 5.75769 9.78421 5.69087 9.63244 5.63764C9.51012 5.59474 9.38597 5.56187 9.26001 5.53902C9.11655 5.51301 8.97072 5.5 8.82254 5.5L5.24994 5.50019C4.83576 5.50019 4.5 5.83595 4.5 6.25013L4.5 9L3 9L3 6.25013C3 5.00751 4.00732 4.00019 5.24994 4.00019L8.82253 4C9.05585 4 9.28562 4.02003 9.51184 4.06011Q9.82489 4.11556 10.1289 4.22217Q10.4785 4.34477 10.7935 4.5271C10.9648 4.62627 11.1284 4.73868 11.2844 4.86434L12.9781 6.22875C13.0672 6.3005 13.1604 6.36525 13.2578 6.42298C13.3935 6.50345 13.5372 6.57031 13.6891 6.62356C13.8114 6.66646 13.9355 6.69933 14.0615 6.72218C14.205 6.7482 14.3508 6.7612 14.499 6.7612L18.749 6.76119C19.9879 6.76119 20.9929 7.76251 20.999 9L19.4989 9Z" fill="currentColor" fill-rule="evenodd" />
</svg>
