<svg xmlns="http://www.w3.org/2000/svg" viewBox="0 0 24 24" fill="none">
	<path id="矢量 10" d="M19.8584 10L3.5 10C2.67157 10 2 10.6716 2 11.5L2 19.5C2 20.3284 2.67157 21 3.5 21L16.9494 21C17.5801 21 18.1435 20.6054 18.359 20.0126L21.2681 12.0126C21.6239 11.0343 20.8994 10 19.8584 10Z" fill="currentColor" fill-rule="evenodd" />
	<path id="减去顶层" d="M2 9L4 9L4 6L7.5203 6Q8.07519 6 8.56329 6.18056Q9.05138 6.36112 9.47268 6.72223L10.7257 7.79628Q11.4279 8.39814 12.2414 8.69907Q13.0549 9 13.9797 9L20 9Q20 8.58579 19.8536 8.23223Q19.7071 7.87868 19.4142 7.58579Q19.1213 7.29289 18.7678 7.14645Q18.4142 7 18 7L13.9797 7Q13.4248 7 12.9367 6.81944Q12.4486 6.63888 12.0273 6.27777L10.7743 5.20372Q10.0721 4.60186 9.25861 4.30093Q8.44512 4 7.5203 4L4 4Q3.58579 4 3.23223 4.14645Q2.87868 4.29289 2.58579 4.58579Q2.29289 4.87868 2.14645 5.23223Q2 5.58579 2 6L2 9Z" fill="currentColor" fill-rule="evenodd" />
</svg>
