<svg xmlns="http://www.w3.org/2000/svg" viewBox="0 0 24 24" fill="none">
	<path id="矢量 9(边框)" d="M3.00101 6.23894L3.00102 17.75C3.00102 18.9926 4.00838 20 5.25102 20L18.75 20C19.9926 20 21 18.9926 21 17.75L21 9C21 7.75736 19.9926 6.75 18.75 6.75L14.5 6.75001C14.3518 6.75001 14.206 6.737 14.0625 6.71098C13.9366 6.68814 13.8124 6.65527 13.6901 6.61237C13.5383 6.55912 13.3945 6.49226 13.2588 6.41179C13.1614 6.35405 13.0682 6.28931 12.9791 6.21756L11.2854 4.85315C11.1295 4.72748 10.9658 4.61507 10.7945 4.51591C10.5845 4.39435 10.3629 4.29271 10.1299 4.21097C9.92723 4.1399 9.72155 4.08588 9.51286 4.04891C9.28664 4.00884 9.05687 3.9888 8.82355 3.9888L5.25096 3.98899C4.00834 3.98899 3.00101 4.99631 3.00101 6.23894ZM5.25102 18.5C4.8368 18.5 4.50102 18.1642 4.50102 17.75L4.50101 6.23894C4.50101 5.82475 4.83677 5.48899 5.25096 5.48899L8.82356 5.4888C8.97174 5.4888 9.11756 5.50181 9.26103 5.52783C9.38699 5.55067 9.51113 5.58354 9.63346 5.62644C9.78523 5.67967 9.92894 5.74649 10.0646 5.82691C10.162 5.88468 10.2553 5.94946 10.3444 6.02126L12.0381 7.38566C12.1942 7.51138 12.3579 7.62384 12.5293 7.72303C12.7392 7.84453 12.9607 7.94614 13.1937 8.02784C13.3964 8.09893 13.6021 8.15296 13.8109 8.18993C14.037 8.22998 14.2667 8.25001 14.5 8.25001L18.75 8.25C19.1642 8.25 19.5 8.58578 19.5 9L19.5 17.75C19.5 18.1642 19.1642 18.5 18.75 18.5L5.25102 18.5Z" fill="currentColor" fill-rule="evenodd" />
</svg>
