<?xml version="1.0" encoding="UTF-8"?>
<svg class="icon" width="16" height="16" p-id="5419" t="1784569638457" version="1.1" viewBox="0 0 81.92 81.92" xml:space="preserve" xmlns="http://www.w3.org/2000/svg"><path d="m69.562 25.844h-23.046c-2.3087-0.0014-4.5447-0.7915-6.3242-2.2345l-5.3863-4.3639c-1.7794-1.4431-4.0155-2.2331-6.3242-2.2345h-16.123v12.207" fill="none" stroke="currentColor" stroke-linecap="round" stroke-linejoin="round" stroke-width="6.4" style="paint-order:normal"/><g transform="matrix(.87628 0 0 .87628 5.0678 5.094)" fill="currentColor" stroke-linecap="round" stroke-linejoin="round" stroke-width="7.3036"><path d="m3.901 37.107h74.118l-5.0435 31.209h-64.031z" stop-color="#000000"/><path d="m3.9004 33.268c-2.3645 2.99e-4 -4.1671 2.1168-3.791 4.4512l5.0449 31.209c0.30028 1.8606 1.9063 3.2284 3.791 3.2285h64.029c1.8847-1.53e-4 3.4907-1.3679 3.791-3.2285l5.0449-31.209c0.37606-2.3344-1.4265-4.4509-3.791-4.4512z" stop-color="#000000"/></g></svg>
