<svg xmlns="http://www.w3.org/2000/svg" viewBox="0 0 24 24" fill="none">
	<defs>
		<clipPath id="clipPath_8">
			<rect width="9.499997" height="10.000008" x="3.000000" y="10.000000" fill="currentColor" />
		</clipPath>
	</defs>
	<g id="小铅笔" customFrame="url(#clipPath_8)">
		<rect id="小铅笔" width="9.499997" height="10.000008" x="3.000000" y="10.000000" fill="currentColor" fill-opacity="0" />
		<path id="小铅笔" d="M5.5 20L3 20L3.00001 17.5L8.75225 11.3369C9.4343 10.6061 10.5863 10.5863 11.2931 11.2931C11.9663 11.9663 11.985 13.0518 11.3354 13.7478L5.5 20Z" stroke="currentColor" stroke-width="1.750000" />
	</g>
	<path id="减去顶层" d="M2 12.5278C2.5771 12.0113 3.25476 11.6048 4 11.3414L4 5L8.25257 5Q8.81411 5 9.30662 5.18438Q9.79913 5.36876 10.2226 5.73751L11.9015 7.19939Q12.6073 7.81398 13.4282 8.12128Q14.249 8.42857 15.1849 8.42857L20 8.42857L20 18C20 18.5523 19.5523 19 19 19L11.6586 19C11.3952 19.7452 10.9887 20.4229 10.4722 21L19 21C20.6569 21 22 19.6569 22 18L22 8.42857Q22 8.01435 21.8535 7.66079Q21.7071 7.30724 21.4142 7.01436Q21.1213 6.72147 20.7678 6.57502Q20.4142 6.42857 20 6.42857L15.1849 6.42857Q14.6234 6.42857 14.1309 6.24419Q13.6384 6.05982 13.2149 5.69106L11.536 4.22918Q10.8302 3.61459 10.0093 3.30729Q9.18846 3 8.25257 3L4 3Q3.58579 3 3.23223 3.14645Q2.87868 3.29289 2.58579 3.58579Q2.29289 3.87868 2.14645 4.23223Q2 4.58579 2 5L2 12.5278Z" fill="currentColor" fill-rule="evenodd" />
</svg>
