<?xml version="1.0" encoding="UTF-8"?>
<svg class="icon" width="512" height="512" version="1.1" viewBox="0 0 2621.4 2621.4" xmlns="http://www.w3.org/2000/svg">
 <g stroke-width="2.7844">
  <path d="m1310.7 63.601c-687.76 0-1247.4 559.66-1247.4 1247.4 0 687.75 559.66 1247.4 1247.4 1247.4 687.75 0 1247.4-559.67 1247.4-1247.4 0-687.76-559.67-1247.4-1247.4-1247.4z" fill="#e0e0e0"/>
  <path d="m1373.1 276.68c-33.466-97.049-87.013-97.049-120.49 0l-185.18 546.63c-32.347 97.056-139.44 203.03-235.38 236.5l-543.28 185.18c-97.049 33.466-97.049 87.013 0 120.48l539.93 187.41c97.056 33.466 203.03 140.56 236.5 236.5l188.52 547.74c33.466 97.049 87.013 97.049 120.48 0l184.07-544.39c32.347-97.056 138.33-203.03 235.38-236.5l551.08-188.53c97.049-33.466 97.049-87.013 0-119.36l-542.16-182.95c-97.056-32.354-203.03-138.33-236.5-235.38-3.3502-1.112-192.99-553.31-192.99-553.31z" fill="#808080"/>
  <path d="m535.7 2089.1 1088.7-469.31 458.14-1077.5-1077.1 459.19z" fill="#202020"/>
  <path d="m1305.5 1319.3m-178.2 0a178.2 178.2 0 1 0 356.41 0 178.2 178.2 0 1 0-356.41 0z" fill="#e0e0e0"/>
 </g>
</svg>
