<svg xmlns="http://www.w3.org/2000/svg" viewBox="0 0 24 24" fill="none">
	<circle id="椭圆 1" cx="4" cy="4" r="1" fill="currentColor" />
	<circle id="椭圆 2" cx="4" cy="12" r="1" fill="currentColor" />
	<circle id="椭圆 3" cx="4" cy="20" r="1" fill="currentColor" />
	<path id="矢量 12(边框)" d="M20.25 3.24631L8.75 3.25C8.62809 3.25 8.51669 3.27537 8.41579 3.32612C8.2677 3.39833 8.14833 3.5177 8.07612 3.66579C8.02537 3.76669 8 3.87809 8 4C8 4.12191 8.02537 4.23331 8.07612 4.33421C8.14833 4.4823 8.2677 4.60167 8.41579 4.67389C8.51669 4.72463 8.62809 4.75 8.75 4.75L20.25 4.74631L20.2503 4.74631C20.3721 4.74628 20.4834 4.72091 20.5842 4.6702C20.7323 4.59798 20.8517 4.47861 20.9239 4.33051C20.9741 4.23064 20.9995 4.12047 21 4L21 3.99631C21 3.8744 20.9746 3.763 20.9239 3.66211C20.8517 3.51401 20.7323 3.39464 20.5842 3.32242C20.4843 3.27219 20.3742 3.24683 20.2537 3.24632L20.25 3.24631Z" fill="currentColor" fill-rule="evenodd" />
	<path id="矢量 12(边框)" d="M8.75 11.25L20.25 11.2463L20.2537 11.2463C20.3742 11.2468 20.4844 11.2722 20.5842 11.3224C20.7323 11.3947 20.8517 11.514 20.9239 11.6621C20.9747 11.763 21 11.8744 21 11.9963L21 12C20.9995 12.1205 20.9741 12.2306 20.9239 12.3305C20.8517 12.4786 20.7323 12.598 20.5842 12.6702C20.4834 12.7209 20.3721 12.7463 20.2503 12.7463L20.25 12.7463L8.75 12.75C8.62808 12.75 8.51668 12.7246 8.4158 12.6739C8.2677 12.6017 8.14834 12.4823 8.07612 12.3342C8.02538 12.2333 8 12.1219 8 12C8 11.8781 8.02538 11.7667 8.07612 11.6658C8.14834 11.5177 8.2677 11.3983 8.4158 11.3261C8.51668 11.2754 8.62808 11.25 8.75 11.25ZM8.75 19.25L20.25 19.2463L20.2537 19.2463C20.3742 19.2468 20.4844 19.2722 20.5842 19.3224C20.7323 19.3946 20.8517 19.514 20.9239 19.6621C20.9746 19.763 21 19.8744 21 19.9963L21 20C20.9995 20.1205 20.9741 20.2306 20.9239 20.3305C20.8517 20.4786 20.7323 20.598 20.5842 20.6702C20.4834 20.7209 20.3721 20.7463 20.2503 20.7463L20.25 20.7463L8.75 20.75C8.62808 20.75 8.51668 20.7246 8.4158 20.6739C8.2677 20.6017 8.14834 20.4823 8.07612 20.3342C8.02538 20.2333 8 20.1219 8 20C8 19.8781 8.02538 19.7667 8.07612 19.6658C8.14834 19.5177 8.2677 19.3983 8.4158 19.3261C8.51668 19.2754 8.62808 19.25 8.75 19.25Z" fill="currentColor" fill-rule="evenodd" />
</svg>
