<svg xmlns="http://www.w3.org/2000/svg" viewBox="0 0 24 24" fill="none">
	<defs>
		<clipPath id="clipPath_3">
			<rect width="24.000000" height="24.000000" x="0.000000" y="0.000000" fill="currentColor" />
		</clipPath>
	</defs>
	<g id="magic 1" clip-path="url(#clipPath_3)" customFrame="url(#clipPath_3)">
		<rect id="magic 1" width="24.000000" height="24.000000" x="0.000000" y="0.000000" />
		<path id="星形 2" d="M11.1431 4.1307C11.2081 4.22557 11.3039 4.29512 11.4142 4.32764L15.5177 5.53729C15.8547 5.63662 15.9869 6.04336 15.7726 6.32179L13.1638 9.71243C13.0937 9.80358 13.0522 9.91611 13.0554 10.0311L13.1779 14.3076C13.1876 14.6588 12.8416 14.9101 12.5106 14.7924L8.4797 13.3591C8.37134 13.3205 8.25302 13.3205 8.14466 13.3591L4.11379 14.7924C3.78294 14.9101 3.43718 14.6586 3.44717 14.3076L3.56897 10.0311C3.57213 9.91611 3.53068 9.80357 3.46054 9.71243L0.851717 6.32179C0.637486 6.04336 0.769642 5.63662 1.10662 5.53729L5.21017 4.32764C5.32048 4.29512 5.41621 4.22556 5.48123 4.1307L7.89974 0.601793C8.09835 0.312007 8.52601 0.312007 8.72462 0.601793L11.1431 4.1307Z" fill-rule="evenodd" stroke="currentColor" stroke-width="2.000000" transform="matrix(0.866025,0.5,-0.5,0.866025,7.84418,-0.730133)" />
		<path id="减去顶层" d="M15.1651 16.5793L19.2929 20.7071C19.575 20.9893 19.9721 21.0704 20.3203 20.9504Q20.5325 20.8802 20.7036 20.7106Q20.7054 20.7089 20.7071 20.7071C20.9893 20.425 21.0704 20.0279 20.9504 19.6798Q20.8802 19.4675 20.7106 19.2964Q20.7088 19.2946 20.7071 19.2929L16.5793 15.1651C16.2555 15.7627 15.7627 16.2555 15.1651 16.5793Z" fill="currentColor" fill-rule="evenodd" />
	</g>
</svg>
