<svg xmlns="http://www.w3.org/2000/svg" viewBox="0 0 24 24" fill="none">
	<g id="组合 3">
		<path id="矢量 54" d="M10.1635 0C10.8921 0 11.3761 0.754269 11.0725 1.41666L8.98233 5.97707C8.86108 6.24161 8.86108 6.54584 8.98233 6.81038L11.0725 11.3708C11.3761 12.0332 10.8921 12.7874 10.1635 12.7874L1.55836 12.7874C0.82972 12.7874 0.345707 12.0332 0.6493 11.3708L2.73949 6.81038C2.86073 6.54584 2.86073 6.2416 2.73949 5.97707L0.6493 1.41666C0.345706 0.754272 0.829719 3.54245e-06 1.55836 3.54245e-06L10.1635 0Z" stroke="currentColor" stroke-width="2.000000" transform="matrix(0.707107,0.707107,-0.707107,0.707107,12.394,3.3174)" />
		<path id="矢量 55(边框)" d="M2 0L2 3L0.999997 5L5.38118e-06 3L0 0L2 0Z" fill="currentColor" fill-rule="evenodd" transform="matrix(0.707107,0.707107,-0.707107,0.707107,7.02739,15.6678)" />
	</g>
	</svg>
