<svg xmlns="http://www.w3.org/2000/svg" viewBox="0 0 24 24" fill="none">
	<g id="组合 1">
		<path id="矢量 33" d="M-0.707107 16.404L10.2929 5.404Q10.751 4.94593 10.9888 4.23238Q11.4184 2.9437 10.2929 1.81822Q9.16741 0.692734 7.87873 1.12229Q7.16518 1.36014 6.70711 1.81822L6.67503 1.85029L0.640188 6.87933L-0.64018 5.34289L5.35982 0.342891L6 1.11111L5.29289 0.404005Q6.08482 -0.387921 7.24627 -0.775072Q9.70759 -1.59551 11.7071 0.404005Q13.7066 2.40352 12.8862 4.86484Q12.499 6.02629 11.7071 6.81822L0.707107 17.8182Q0.637463 17.8879 0.55557 17.9426Q0.473678 17.9973 0.382684 18.035Q0.291689 18.0727 0.19509 18.0919Q0.0984916 18.1111 1.78814e-07 18.1111Q-0.0984912 18.1111 -0.19509 18.0919Q-0.291689 18.0727 -0.382683 18.035Q-0.473677 17.9973 -0.55557 17.9426Q-0.637463 17.8879 -0.707107 17.8182Q-0.776751 17.7486 -0.831469 17.6667Q-0.886188 17.5848 -0.923879 17.4938Q-0.96157 17.4028 -0.980785 17.3062Q-1 17.2096 -1 17.1111Q-1 17.0126 -0.980785 16.916Q-0.961571 16.8194 -0.923879 16.7284Q-0.886189 16.6374 -0.83147 16.5555Q-0.776751 16.4736 -0.707107 16.404ZM0.707108 17.7899L0.707108 17.8182C0.311129 18.2142 -0.311129 18.2142 -0.707107 17.8182C-1.10309 17.4222 -1.10309 16.8 -0.707108 16.404L-0.678822 16.404L0.707108 17.7899Z" fill="currentColor" fill-rule="nonzero" transform="matrix(-1,0,0,1,18.1111,3)" />
		<path id="矢量 34" d="M0 0L2.73064e-06 6L6 6" stroke="currentColor" stroke-linecap="round" stroke-width="2.000000" transform="matrix(-0.992408,0.122993,0.122993,0.992408,17.6352,3.37315)" />
	</g>
</svg>
