<svg xmlns="http://www.w3.org/2000/svg" viewBox="0 0 24 24" fill="none">
	<g id="组合 2">
		<path id="矢量 33" d="M2.03085 17.0955L13.0309 6.09546C13.3135 5.80004 13.517 5.39677 13.6413 4.88566C13.8861 3.87934 13.5159 2.88364 12.5309 1.89856C11.5823 0.950037 10.3518 0.754019 8.83927 1.31051C7.99459 1.62129 7.26435 2.03903 6.64857 2.56373L0.640184 7.57079L-0.640184 6.03434L5.35143 1.04142C6.1483 0.362412 7.08072 -0.173554 8.14869 -0.566481C10.4615 -1.4174 12.3936 -1.06712 13.9451 0.484349C15.46 1.99927 16.0065 3.62395 15.5846 5.35836C15.3756 6.21763 14.9958 6.93473 14.4451 7.50968L3.44506 18.5097C2.97366 18.9811 2.50225 18.9811 2.03085 18.5097C1.55945 18.0383 1.55945 17.5669 2.03085 17.0955ZM3.44506 18.4814L3.44506 18.5097C3.04908 18.9057 2.42683 18.9057 2.03085 18.5097C1.63487 18.1137 1.63487 17.4914 2.03085 17.0955L2.05914 17.0955L3.44506 18.4814Z" fill="currentColor" fill-rule="nonzero" transform="matrix(-1,0,0,1,20.7145,2)" />
		<path id="矢量 34" d="M0 0L2.73064e-06 6L6 6" stroke="currentColor" stroke-linecap="round" stroke-width="2.000000" transform="matrix(-0.992408,0.122993,0.122993,0.992408,20.2386,3.06461)" />
	</g>
</svg>
