<svg xmlns="http://www.w3.org/2000/svg" viewBox="0 0 24 24" fill="none">
	<path id="椭圆 10" d="M3 12C3 7.02944 7.02944 3 12 3C16.9706 3 21 7.02944 21 12C21 16.9706 16.9706 21 12 21Q11.9015 21 11.8049 20.9808Q11.7083 20.9616 11.6173 20.9239Q11.5263 20.8862 11.4444 20.8315Q11.3625 20.7767 11.2929 20.7071Q11.2232 20.6375 11.1685 20.5556Q11.1138 20.4737 11.0761 20.3827Q11.0384 20.2917 11.0192 20.1951Q11 20.0985 11 20Q11 19.9015 11.0192 19.8049Q11.0384 19.7083 11.0761 19.6173Q11.1138 19.5263 11.1685 19.4444Q11.2232 19.3625 11.2929 19.2929Q11.3625 19.2232 11.4444 19.1685Q11.5263 19.1138 11.6173 19.0761Q11.7083 19.0384 11.8049 19.0192Q11.9015 19 12 19C15.866 19 19 15.866 19 12C19 8.13401 15.866 5 12 5C8.13401 5 5 8.13401 5 12Q5 12.0985 4.98079 12.1951Q4.96157 12.2917 4.92388 12.3827Q4.88619 12.4737 4.83147 12.5556Q4.77675 12.6375 4.70711 12.7071Q4.63746 12.7767 4.55557 12.8315Q4.47368 12.8862 4.38268 12.9239Q4.29169 12.9616 4.19509 12.9808Q4.09849 13 4 13Q3.90151 13 3.80491 12.9808Q3.70831 12.9616 3.61732 12.9239Q3.52632 12.8862 3.44443 12.8315Q3.36254 12.7767 3.29289 12.7071Q3.22325 12.6375 3.16853 12.5556Q3.11381 12.4737 3.07612 12.3827Q3.03843 12.2917 3.01921 12.1951Q3 12.0985 3 12ZM4.98 11.98L5 12C5 12.56 4.56 13 4 13C3.44 13 3 12.56 3 12L3.02 11.98L4.98 11.98ZM12.02 20.98L12 21C11.44 21 11 20.56 11 20C11 19.44 11.44 19 12 19L12.02 19.02L12.02 20.98Z" fill="currentColor" fill-rule="nonzero" />
	<path id="矢量 46" d="M1.5 10.75L4 13.25L6.5 10.75" stroke="currentColor" stroke-linecap="round" stroke-width="2.000000" />
</svg>
