<?xml version="1.0" encoding="UTF-8"?>
<svg xmlns="http://www.w3.org/2000/svg" fill="currentColor" version="1.1" viewBox="0 0 4.2333 4.2333" xml:space="preserve"><g transform="matrix(.22902 0 0 .22902 -.6521 -.61274)"><path d="m19.249 6.8722c0.2408-0.24075 0.5878-0.34252 0.9205-0.27 0.3326 0.07253 0.6057 0.31 0.7244 0.62908 0.9242 2.485 0.389 5.3932-1.6111 7.3935-1.9752 1.9753-4.8355 2.5214-7.301 1.6442l-4.0127 4.0127c-1.1716 1.1716-3.0711 1.1716-4.2426 0s-1.1716-3.0711 0-4.2427l4.0127-4.0126c-0.87718-2.4655-0.33112-5.3258 1.6442-7.3011 1.9968-1.9966 4.8984-2.5333 7.3804-1.6158 0.3197 0.11818 0.5575 0.39143 0.6304 0.72437 0.0728 0.33279-0.0291 0.67955-0.27 0.92048l-2.3561 2.3561c-0.5854 0.58573-0.5854 1.5356 0 2.1213 0.5857 0.5857 1.5355 0.58552 2.1213 0z" /></g></svg>
