<svg xmlns="http://www.w3.org/2000/svg" viewBox="0 0 24 24" fill="none">
	<circle id="椭圆 9" cx="9" cy="9" r="6.125" stroke="currentColor" stroke-width="1.750000" />
	<path id="矢量 45" d="M19.2929 20.7071L12.0858 13.5L13.5 12.0858L20.7071 19.2929Q20.7768 19.3625 20.8315 19.4444Q20.8862 19.5263 20.9239 19.6173Q20.9616 19.7083 20.9808 19.8049Q21 19.9015 21 20Q21 20.0985 20.9808 20.1951Q20.9616 20.2917 20.9239 20.3827Q20.8862 20.4737 20.8315 20.5556Q20.7768 20.6375 20.7071 20.7071Q20.6375 20.7768 20.5556 20.8315Q20.4737 20.8862 20.3827 20.9239Q20.2917 20.9616 20.1951 20.9808Q20.0985 21 20 21Q19.9015 21 19.8049 20.9808Q19.7083 20.9616 19.6173 20.9239Q19.5263 20.8862 19.4444 20.8315Q19.3625 20.7768 19.2929 20.7071ZM20.6788 19.2929L20.7071 19.2929C21.1031 19.6889 21.1031 20.3111 20.7071 20.7071C20.3111 21.1031 19.6889 21.1031 19.2929 20.7071L19.2929 20.6788L20.6788 19.2929ZM12.7929 14.2071L12.0858 13.5L13.5 12.0858L14.2071 12.7929L12.7929 14.2071Z" fill="currentColor" fill-rule="nonzero" />
</svg>
