<?xml version="1.0" encoding="UTF-8"?>
<svg class="icon" width="16" height="16" p-id="5419" t="1784569638457" version="1.1" viewBox="0 0 81.92 81.92" xml:space="preserve" xmlns="http://www.w3.org/2000/svg"><path d="m66.035 69.988c2.3466 0.86659 4.8783-0.72169 5.1193-3.2116l5.6264-56.795c0.3107-3.0672-2.9563-5.2173-5.6505-3.7187l-63.991 35.086c-2.8873 1.5405-2.6225 5.7626 0.43465 6.9303l17.507 6.4957 1.0625 14.851c0.48406 6.3216 8.4152 8.8423 12.46 3.9602l8.6448-10.577 18.787 6.9786m-1.9801-44.407-21.201 30.377c-4.2346 5.5646-12.714-0.37069-8.9346-6.2542 0.4588-0.62783 26.272-26.272 26.78-26.828 1.8676-2.2515 5.2483 0.54956 3.3806 2.8011z" fill="currentColor" stroke-width=".075461" p-id="5420"/></svg>
