<?xml version="1.0" encoding="UTF-8"?>
<svg xmlns="http://www.w3.org/2000/svg" class="icon" p-id="5419" t="1784569638457" version="1.1" viewBox="0 0 81.92 81.92" xml:space="preserve"><g transform="matrix(3.264 0 0 3.2591 1.7923 1.853)" fill="none" stroke="currentColor" stroke-width="1.9623"><path d="m5.3341 4.5449c1.0153-0.90854 2.2174-1.6127 3.5415-2.0478 0.73301 0.91573 1.8602 1.5022 3.1244 1.5022s2.3914-0.58648 3.1245-1.5022c1.3241 0.43513 2.5261 1.1393 3.5414 2.0478-0.4254 1.0921-0.3693 2.3604 0.2623 3.4544 0.632 1.0946 1.7032 1.7775 2.8624 1.9546 0.1373 0.66028 0.2094 1.3444 0.2094 2.0454 0 0.7009-0.0721 1.3851-0.2094 2.0453-1.1592 0.1772-2.2304 0.8601-2.8624 1.9547-0.6316 1.0939-0.6877 2.3623-0.2623 3.4543-1.0153 0.9086-2.2173 1.6128-3.5414 2.0479-0.7331-0.9157-1.8603-1.5022-3.1245-1.5022s-2.3914 0.5865-3.1244 1.5022c-1.3241-0.4351-2.5262-1.1393-3.5415-2.0479 0.42543-1.092 0.36931-2.3604-0.26229-3.4543-0.63197-1.0946-1.7032-1.7775-2.8624-1.9547-0.13723-0.6602-0.20935-1.3444-0.20935-2.0453 0-0.701 0.07212-1.3851 0.20935-2.0454 1.1593-0.17713 2.2305-0.86004 2.8624-1.9546 0.6316-1.094 0.68772-2.3623 0.26229-3.4544zm8.1659 10.052c1.4349-0.8285 1.9265-2.6632 1.0981-4.0981-0.8285-1.4349-2.6632-1.9265-4.0981-1.0981-1.4349 0.8284-1.9265 2.6632-1.0981 4.0981 0.82848 1.4349 2.6632 1.9265 4.0981 1.0981z" fill="none" stroke="currentColor" stroke-width="1.9623" /></g></svg>
