<svg xmlns="http://www.w3.org/2000/svg" viewBox="0 0 24 24" fill="none">
	<circle id="椭圆 14" cx="12" cy="12" r="9" stroke="currentColor" stroke-width="2.000000" />
	<path id="矢量 49" d="M12.9448 11.7339C13.0018 11.089 13.0303 10.3792 13.0303 9.60449L13.0303 7L11.2256 7L11.2256 9.60449C11.2256 10.3701 11.2529 11.0776 11.3076 11.7271C11.3646 12.3765 11.4398 13.027 11.5332 13.6787L12.7363 13.6787C12.8206 13.027 12.8901 12.3787 12.9448 11.7339ZM13.1027 16.3402C13.1934 16.1793 13.2388 15.9928 13.2388 15.7808C13.2388 15.5679 13.1937 15.3799 13.1035 15.2169C13.0547 15.1286 12.9927 15.0477 12.9175 14.9741C12.831 14.8895 12.7362 14.822 12.633 14.7715C12.4806 14.6969 12.31 14.6597 12.1211 14.6597C11.9618 14.6597 11.8142 14.6878 11.6781 14.744C11.5514 14.7963 11.4347 14.873 11.3281 14.9741C11.2468 15.0521 11.1806 15.1382 11.1295 15.2325C11.0432 15.3919 11 15.5746 11 15.7808C11 15.9861 11.0434 16.1675 11.1303 16.3249C11.1813 16.4172 11.2472 16.5013 11.3281 16.5771C11.4303 16.672 11.5418 16.7449 11.6626 16.7959C11.8029 16.8551 11.9557 16.8848 12.1211 16.8848C12.3168 16.8848 12.4929 16.8456 12.6494 16.7674C12.7463 16.7189 12.8356 16.6555 12.9175 16.5771C12.9923 16.5055 13.054 16.4266 13.1027 16.3402Z" fill="currentColor" fill-rule="evenodd" />
</svg>
