<svg xmlns="http://www.w3.org/2000/svg" viewBox="0 0 24 24" fill="none">
	<g id="组合 1">
		<path id="矢量 33" d="M8.29289 19.404L19.2929 8.40401Q19.7169 7.96087 19.9033 7.19421Q20.2705 5.68472 18.7929 4.20711Q17.3701 2.78432 15.1013 3.61905Q13.8343 4.08522 12.9106 4.87227L6.90222 9.87933L5.62185 8.34289L11.6135 3.34996Q12.8088 2.33145 14.4107 1.74206Q17.8799 0.465685 20.2071 2.79289Q22.4795 5.06528 21.8467 7.66691Q21.5332 8.9558 20.7071 9.81822L9.7071 20.8182Q9.63746 20.8879 9.55556 20.9426Q9.47367 20.9973 9.38268 21.035Q9.29168 21.0727 9.19508 21.0919Q9.09849 21.1111 8.99999 21.1111Q8.9015 21.1111 8.8049 21.0919Q8.70831 21.0727 8.61731 21.035Q8.52632 20.9973 8.44442 20.9426Q8.36253 20.8879 8.29289 20.8182Q8.22324 20.7486 8.16852 20.6667Q8.11381 20.5848 8.07612 20.4938Q8.03842 20.4028 8.01921 20.3062Q8 20.2096 8 20.1111Q8 20.0126 8.01921 19.916Q8.03842 19.8194 8.07612 19.7284Q8.11381 19.6374 8.16853 19.5555Q8.22324 19.4736 8.29289 19.404ZM9.7071 20.7899L9.7071 20.8182C9.31112 21.2142 8.68887 21.2142 8.29289 20.8182C7.89691 20.4222 7.89691 19.8 8.29289 19.404L8.32117 19.404L9.7071 20.7899Z" fill="currentColor" fill-rule="nonzero" />
		<path id="矢量 34" d="M0 0L2.73064e-06 6L6 6" stroke="currentColor" stroke-linecap="round" stroke-width="2.000000" transform="matrix(0.992408,0.122993,-0.122993,0.992408,6.73796,3.37315)" />
	</g>
</svg>
