<svg xmlns="http://www.w3.org/2000/svg" viewBox="0 0 24 24" fill="none">
	<g id="组合 1">
		<path id="矢量 33" d="M5.55493 19.404L16.5549 8.40401Q17.013 7.94593 17.2509 7.23238Q17.6804 5.9437 16.5549 4.81822Q15.4295 3.69274 14.1408 4.1223Q13.4272 4.36015 12.9691 4.81822L12.9371 4.8503L6.90223 9.87933L5.62186 8.34289L11.6219 3.34289L12.262 4.11111L11.5549 3.40401Q12.3469 2.61208 13.5083 2.22493Q15.9696 1.40449 17.9691 3.40401Q19.9687 5.40352 19.1482 7.86484Q18.7611 9.02629 17.9691 9.81822L6.96915 20.8182Q6.8995 20.8879 6.81761 20.9426Q6.73572 20.9973 6.64472 21.035Q6.55373 21.0727 6.45713 21.0919Q6.36053 21.1111 6.26204 21.1111Q6.16355 21.1111 6.06695 21.0919Q5.97035 21.0727 5.87936 21.035Q5.78836 20.9973 5.70647 20.9426Q5.62458 20.8879 5.55493 20.8182Q5.48529 20.7486 5.43057 20.6667Q5.37585 20.5848 5.33816 20.4938Q5.30047 20.4028 5.28125 20.3062Q5.26204 20.2096 5.26204 20.1111Q5.26204 20.0126 5.28125 19.916Q5.30047 19.8194 5.33816 19.7284Q5.37585 19.6374 5.43057 19.5555Q5.48529 19.4736 5.55493 19.404ZM6.96915 20.7899L6.96915 20.8182C6.57317 21.2142 5.95091 21.2142 5.55493 20.8182C5.15895 20.4222 5.15895 19.8 5.55493 19.404L5.58322 19.404L6.96915 20.7899Z" fill="currentColor" fill-rule="nonzero" />
		<path id="矢量 34" d="M0 0L2.73064e-06 6L6 6" stroke="currentColor" stroke-linecap="round" stroke-width="2.000000" transform="matrix(0.992408,0.122993,-0.122993,0.992408,6.73796,3.37315)" />
	</g>
</svg>
