<svg xmlns="http://www.w3.org/2000/svg" viewBox="0 0 24 24" fill="none">
	<path id="减去顶层" d="M11.1151 3.68135L2.77145 19.5343C2.42097 20.2002 2.90385 21 3.65636 21L20.3436 21C21.0961 21 21.579 20.2002 21.2286 19.5343L12.8849 3.68135C12.51 2.96901 11.49 2.96901 11.1151 3.68135ZM12.9109 10.6424C12.9109 11.4172 12.8824 12.127 12.8254 12.7718C12.7708 13.4167 12.7013 14.065 12.6169 14.7167L11.4138 14.7167Q11.2737 13.7391 11.1882 12.765Q11.1062 11.7909 11.1062 10.6424L11.1062 8.03795L12.9109 8.03795L12.9109 10.6424ZM13.1194 16.8187Q13.1194 17.1368 12.9833 17.3782C12.9346 17.4645 12.8729 17.5435 12.7981 17.6151Q12.6753 17.7327 12.53 17.8053C12.3735 17.8836 12.1974 17.9227 12.0017 17.9227C11.8364 17.9227 11.6835 17.8931 11.5432 17.8338C11.4224 17.7829 11.311 17.7099 11.2087 17.6151C11.1279 17.5393 11.0619 17.4552 11.011 17.3629C10.9241 17.2055 10.8806 17.0241 10.8806 16.8187Q10.8806 16.5095 11.0101 16.2705C11.0612 16.1762 11.1274 16.09 11.2087 16.0121Q11.3686 15.8604 11.5587 15.7819C11.6948 15.7257 11.8424 15.6976 12.0017 15.6976C12.1906 15.6976 12.3612 15.7349 12.5137 15.8094C12.6168 15.8599 12.7116 15.9274 12.7981 16.0121C12.8733 16.0857 12.9353 16.1666 12.9841 16.2548Q13.1194 16.4993 13.1194 16.8187Z" fill="currentColor" fill-rule="evenodd" />
</svg>
