<svg xmlns="http://www.w3.org/2000/svg" viewBox="0 0 24 24" fill="none">
	<path id="矢量 150" d="M12.8889 17.7273C13.2222 18.1049 13.3333 18.6084 13.3333 19.1119C13.3333 19.6154 13.1111 20.1189 12.7778 20.4965C12.4444 20.8741 12 21 11.5556 21C11.1111 21 10.6667 20.8741 10.4444 20.4965C10.1111 20.1189 10 19.7413 10 19.1119C10 18.4825 10.2222 18.1049 10.5556 17.7273C10.8889 17.3497 11.3333 17.2238 11.7778 17.2238C12.1111 17.2238 12.5556 17.3497 12.8889 17.7273ZM11 3L14 3L12.6667 15.8392L10.7778 15.8392L11 3L11 3Z" fill="currentColor" fill-rule="nonzero" />
</svg>
